<svg width="212" height="20" viewBox="0 0 212 20" fill="none" xmlns="http://www.w3.org/2000/svg">
<path d="M16.1172 19.6127C15.8959 18.9488 15.6444 18.2665 15.3627 17.5657C15.1011 16.8649 14.8395 16.1641 14.578 15.4633H6.42879C6.16721 16.1641 5.89557 16.8649 5.61387 17.5657C5.35229 18.2665 5.11084 18.9488 4.8895 19.6127H0C0.784734 17.5473 1.52923 15.6385 2.23348 13.8866C2.93772 12.1346 3.62185 10.4841 4.28586 8.93499C4.96999 7.38589 5.63399 5.91978 6.27788 4.53665C6.94188 3.13509 7.62601 1.7704 8.33026 0.442601H12.8274C13.5115 1.7704 14.1856 3.13509 14.8496 4.53665C15.5136 5.91978 16.1776 7.38589 16.8416 8.93499C17.5257 10.4841 18.2199 12.1346 18.9242 13.8866C19.6284 15.6385 20.3729 17.5473 21.1576 19.6127H16.1172ZM10.4732 4.78562C10.3726 5.06224 10.2217 5.4403 10.0205 5.91978C9.81924 6.39926 9.58785 6.95251 9.32627 7.57953C9.06469 8.20655 8.77293 8.89811 8.45099 9.65422C8.14917 10.4103 7.83728 11.2033 7.51534 12.0332H13.4612C13.1393 11.2033 12.8274 10.4103 12.5256 9.65422C12.2237 8.89811 11.932 8.20655 11.6503 7.57953C11.3887 6.95251 11.1573 6.39926 10.9561 5.91978C10.7549 5.4403 10.5939 5.06224 10.4732 4.78562Z" fill="#444444"/>
<path d="M37.8394 15.9059V19.6127H23.8651V0.442601H28.5735V15.9059H37.8394Z" fill="#444444"/>
<path d="M92.5277 19.8617C91.3808 19.8617 90.2339 19.8248 89.0869 19.751C87.9601 19.6957 86.783 19.5482 85.5556 19.3084V0.719226C86.5215 0.553251 87.5778 0.43338 88.7248 0.359613C89.8717 0.267405 90.9381 0.221301 91.9241 0.221301C93.2521 0.221301 94.4694 0.313509 95.5761 0.497925C96.7029 0.663901 97.6687 0.958968 98.4736 1.38313C99.2784 1.80728 99.9022 2.36976 100.345 3.07054C100.808 3.75288 101.039 4.6012 101.039 5.61549C101.039 7.14615 100.234 8.35408 98.6245 9.23928C99.9525 9.70032 100.858 10.3273 101.341 11.1203C101.824 11.9133 102.065 12.8077 102.065 13.8036C102.065 15.8137 101.26 17.326 99.6507 18.3403C98.0611 19.3545 95.6868 19.8617 92.5277 19.8617ZM90.1433 11.2586V16.2102C90.4854 16.2471 90.8576 16.2748 91.26 16.2932C91.6625 16.3117 92.1052 16.3209 92.5881 16.3209C93.9966 16.3209 95.1334 16.1365 95.9986 15.7676C96.8639 15.3988 97.2965 14.7165 97.2965 13.7206C97.2965 12.8354 96.9343 12.2084 96.2099 11.8396C95.4855 11.4523 94.4493 11.2586 93.1012 11.2586H90.1433ZM90.1433 7.96681H92.4371C93.8859 7.96681 94.9221 7.80083 95.5459 7.46888C96.1697 7.11849 96.4815 6.56524 96.4815 5.80913C96.4815 5.03458 96.1596 4.49055 95.5157 4.17704C94.8718 3.86353 93.9261 3.70678 92.6786 3.70678C92.2762 3.70678 91.8436 3.716 91.3808 3.73444C90.918 3.73444 90.5055 3.75288 90.1433 3.78977V7.96681Z" fill="#444444"/>
<path d="M105.834 19.6127V0.442601H119.959V4.06639H110.543V7.82849H118.903V11.3693H110.543V15.9889H120.654V19.6127H105.834Z" fill="#444444"/>
<path d="M173.53 16.0996C173.751 16.118 174.003 16.1365 174.285 16.1549C174.586 16.1549 174.939 16.1549 175.341 16.1549C177.695 16.1549 179.436 15.6109 180.562 14.5228C181.709 13.4348 182.283 11.9318 182.283 10.0138C182.283 8.00369 181.74 6.48225 180.653 5.44952C179.566 4.41678 177.846 3.90042 175.492 3.90042C175.17 3.90042 174.838 3.90964 174.496 3.92808C174.154 3.92808 173.832 3.94652 173.53 3.9834V16.0996ZM187.142 10.0138C187.142 11.6736 186.861 13.1213 186.297 14.3568C185.734 15.5924 184.929 16.616 183.883 17.4274C182.856 18.2388 181.599 18.8474 180.11 19.2531C178.621 19.6588 176.951 19.8617 175.1 19.8617C174.254 19.8617 173.269 19.8248 172.142 19.751C171.015 19.6957 169.908 19.5666 168.822 19.3638V0.691564C169.908 0.507147 171.035 0.387276 172.202 0.331951C173.389 0.258184 174.405 0.221301 175.25 0.221301C177.041 0.221301 178.661 0.405717 180.11 0.77455C181.579 1.14338 182.836 1.7243 183.883 2.51729C184.929 3.31028 185.734 4.32457 186.297 5.56017C186.861 6.79576 187.142 8.28031 187.142 10.0138Z" fill="#444444"/>
<path d="M212 10.0138C212 11.6551 211.728 13.1028 211.185 14.3568C210.662 15.5924 209.938 16.6344 209.012 17.4827C208.086 18.3126 206.98 18.9396 205.692 19.3638C204.424 19.7879 203.056 20 201.587 20C200.159 20 198.81 19.7879 197.543 19.3638C196.275 18.9396 195.168 18.3126 194.223 17.4827C193.277 16.6344 192.533 15.5924 191.989 14.3568C191.446 13.1028 191.174 11.6551 191.174 10.0138C191.174 8.37252 191.456 6.93407 192.019 5.69848C192.583 4.44444 193.337 3.39327 194.283 2.54495C195.249 1.69663 196.356 1.0604 197.603 0.636238C198.871 0.212079 200.199 0 201.587 0C203.016 0 204.364 0.212079 205.632 0.636238C206.899 1.0604 208.006 1.69663 208.952 2.54495C209.897 3.39327 210.642 4.44444 211.185 5.69848C211.728 6.93407 212 8.37252 212 10.0138Z" fill="#444444"/>
<path d="M45.7082 9.62656H75.8903V13.0567H45.7082V9.62656Z" fill="#DB8680"/>
<path d="M128.974 9.62656H159.156V13.0567H128.974V9.62656Z" fill="#DB8680"/>
</svg>
